<svg xmlns="http://www.w3.org/2000/svg" xmlns:xlink="http://www.w3.org/1999/xlink" width="130" zoomAndPan="magnify" viewBox="0 0 97.5 37.5" height="50" preserveAspectRatio="xMidYMid meet" version="1.0"><defs><g/></defs><g fill="#ffffff" fill-opacity="1"><g transform="translate(1.7896, 26.781375)"><g><path d="M 0.515625 0 L 0.894531 0 L 3.515625 -5.789062 L 10.855469 -5.789062 L 13.476562 0 L 19.199219 0 L 9.339844 -19.578125 Z M 3.6875 -6.136719 L 7.203125 -13.855469 L 10.71875 -6.136719 Z M 3.6875 -6.136719 "/></g></g></g><g fill="#ffffff" fill-opacity="1"><g transform="translate(21.503406, 26.781375)"><g><path d="M 10.71875 -14.371094 C 8.859375 -14.371094 7.617188 -13.546875 6.753906 -12.097656 L 6.753906 -14.0625 L 1.722656 -14.0625 L 1.722656 0 L 6.753906 0 L 6.753906 -11.410156 C 7.511719 -12.925781 8.617188 -13.855469 9.925781 -13.855469 C 10.925781 -13.855469 11.613281 -12.992188 11.613281 -11.925781 C 11.613281 -10.269531 9.855469 -9.375 9.855469 -9.375 C 9.925781 -8.511719 10.753906 -7.339844 12.132812 -7.339844 C 14.164062 -7.339844 14.890625 -9.03125 14.890625 -10.476562 C 14.890625 -13.304688 12.785156 -14.371094 10.71875 -14.371094 Z M 10.71875 -14.371094 "/></g></g></g><g fill="#ffffff" fill-opacity="1"><g transform="translate(36.90913, 26.781375)"><g><path d="M 4.410156 -15.957031 C 5.929688 -15.957031 7.132812 -17.164062 7.132812 -18.679688 C 7.132812 -20.164062 5.929688 -21.367188 4.410156 -21.367188 C 2.929688 -21.367188 1.722656 -20.164062 1.722656 -18.679688 C 1.722656 -17.164062 2.929688 -15.957031 4.410156 -15.957031 Z M 1.894531 0 L 6.925781 0 L 6.925781 -14.027344 L 1.894531 -14.0625 Z M 1.894531 0 "/></g></g></g><g fill="#ffffff" fill-opacity="1"><g transform="translate(45.766557, 26.781375)"><g><path d="M 0 -13.71875 L 2.171875 -13.71875 L 2.171875 0 L 7.203125 0 L 7.203125 -13.71875 L 9.304688 -13.71875 L 9.304688 -14.0625 L 7.203125 -14.0625 L 7.203125 -19.609375 C 7.203125 -21.230469 8.203125 -22.09375 9.476562 -22.09375 C 10.71875 -22.09375 11.71875 -21.230469 11.71875 -19.609375 C 11.71875 -17.507812 10.269531 -17.128906 10.269531 -17.128906 C 10.269531 -16.269531 10.960938 -14.890625 12.375 -14.890625 C 14.40625 -14.890625 15.507812 -16.371094 15.507812 -18.027344 C 15.507812 -20.507812 12.648438 -22.472656 9.445312 -22.472656 C 7.238281 -22.472656 5.410156 -21.886719 4.066406 -20.78125 C 2.894531 -19.816406 2.171875 -18.472656 2.171875 -16.75 L 2.171875 -14.0625 L 0 -14.0625 Z M 0 -13.71875 "/></g></g></g><g fill="#ffffff" fill-opacity="1"><g transform="translate(62.137289, 26.781375)"><g><path d="M 5.6875 0.34375 C 7.996094 0.34375 9.925781 -1.480469 10.960938 -2.828125 L 10.960938 -2.757812 C 10.960938 -1.035156 12.304688 0.34375 14.0625 0.34375 C 15.855469 0.34375 17.300781 -1.101562 17.300781 -2.894531 L 17.027344 -2.929688 C 16.957031 -1.929688 16.785156 -1.757812 16.542969 -1.757812 C 16.09375 -1.757812 15.992188 -2.308594 15.992188 -2.929688 L 15.992188 -14.0625 L 10.960938 -14.0625 L 10.960938 -3.414062 C 10.546875 -2.828125 9.582031 -1.828125 9.304688 -1.585938 C 8.03125 -0.484375 6.753906 -0.6875 6.753906 -2.585938 L 6.753906 -14.0625 L 1.722656 -14.0625 L 1.722656 -2.6875 C 1.722656 -1.136719 3.308594 0.34375 5.6875 0.34375 Z M 5.6875 0.34375 "/></g></g></g><g fill="#ffffff" fill-opacity="1"><g transform="translate(80.300183, 26.781375)"><g><path d="M 10.71875 -14.371094 C 8.859375 -14.371094 7.617188 -13.546875 6.753906 -12.097656 L 6.753906 -14.0625 L 1.722656 -14.0625 L 1.722656 0 L 6.753906 0 L 6.753906 -11.410156 C 7.511719 -12.925781 8.617188 -13.855469 9.925781 -13.855469 C 10.925781 -13.855469 11.613281 -12.992188 11.613281 -11.925781 C 11.613281 -10.269531 9.855469 -9.375 9.855469 -9.375 C 9.925781 -8.511719 10.753906 -7.339844 12.132812 -7.339844 C 14.164062 -7.339844 14.890625 -9.03125 14.890625 -10.476562 C 14.890625 -13.304688 12.785156 -14.371094 10.71875 -14.371094 Z M 10.71875 -14.371094 "/></g></g></g></svg>