<svg xmlns="http://www.w3.org/2000/svg" xmlns:xlink="http://www.w3.org/1999/xlink" width="200" zoomAndPan="magnify" viewBox="0 0 150 149.999998" height="200" preserveAspectRatio="xMidYMid meet" version="1.0"><defs><clipPath id="e65f4b9173"><path d="M 2.140625 2 L 147.640625 2 L 147.640625 59 L 2.140625 59 Z M 2.140625 2 " clip-rule="nonzero"/></clipPath><clipPath id="9060503bb3"><path d="M 4.046875 56.289062 L 147.640625 56.289062 L 147.640625 88.226562 L 4.046875 88.226562 Z M 4.046875 56.289062 " clip-rule="nonzero"/></clipPath><clipPath id="8bbb79c767"><path d="M 2.140625 57 L 67 57 L 67 147 L 2.140625 147 Z M 2.140625 57 " clip-rule="nonzero"/></clipPath><clipPath id="71074ee054"><path d="M 84.847656 57.25 L 147.640625 57.25 L 147.640625 145.398438 L 84.847656 145.398438 Z M 84.847656 57.25 " clip-rule="nonzero"/></clipPath><clipPath id="c3b138156e"><path d="M 5.320312 79 L 145.285156 79 L 145.285156 148.621094 L 5.320312 148.621094 Z M 5.320312 79 " clip-rule="nonzero"/></clipPath><clipPath id="f63e44a1b0"><path d="M 5.320312 82.160156 L 145.285156 82.160156 L 145.285156 148.621094 L 5.320312 148.621094 Z M 5.320312 82.160156 " clip-rule="nonzero"/></clipPath></defs><g clip-path="url(#e65f4b9173)"><path fill="#fa9a23" d="M 146.214844 53.15625 C 145.78125 52.703125 145.253906 52.234375 144.621094 51.757812 L 140.515625 48.636719 L 83.542969 5.347656 C 78.785156 1.730469 71 1.730469 66.242188 5.347656 L 9.269531 48.636719 L 5.164062 51.757812 C 4.535156 52.234375 4.003906 52.703125 3.574219 53.15625 C 2.964844 54.179688 2.527344 55.316406 2.308594 56.53125 C 2.796875 57.644531 4.523438 58.328125 7.398438 58.328125 L 142.386719 58.328125 C 145.265625 58.328125 146.988281 57.644531 147.476562 56.53125 C 147.257812 55.316406 146.820312 54.179688 146.214844 53.15625 " fill-opacity="1" fill-rule="nonzero"/></g><g clip-path="url(#9060503bb3)"><path fill="#fa9a23" d="M 147.601562 57.417969 C 147.574219 57.117188 147.527344 56.824219 147.476562 56.53125 C 146.988281 57.644531 145.265625 58.328125 142.386719 58.328125 L 7.398438 58.328125 C 6.164062 58.328125 5.144531 58.203125 4.339844 57.96875 L 76.371094 88.1875 L 147.601562 57.417969 " fill-opacity="1" fill-rule="nonzero"/></g><path fill="#e60081" d="M 130.257812 104.25 C 130.257812 107.609375 127.546875 110.339844 124.199219 110.339844 L 23.152344 110.339844 C 19.800781 110.339844 17.089844 107.609375 17.089844 104.25 L 17.089844 20.554688 C 17.089844 17.191406 19.800781 14.46875 23.152344 14.46875 L 124.199219 14.46875 C 127.546875 14.46875 130.257812 17.191406 130.257812 20.554688 L 130.257812 104.25 " fill-opacity="1" fill-rule="nonzero"/><path fill="#ffffff" d="M 82.238281 50.648438 C 81.441406 50.449219 80.347656 50.25 79.15625 50.25 C 72.585938 50.25 67.410156 56.742188 67.410156 64.4375 C 67.410156 68.234375 69.101562 70.632812 72.386719 70.632812 C 76.070312 70.632812 79.949219 65.9375 80.84375 60.140625 Z M 91.09375 91.914062 C 85.125 94.613281 79.949219 95.511719 72.785156 95.511719 C 56.261719 95.511719 41.734375 83.621094 41.734375 64.039062 C 41.734375 43.652344 56.5625 25.972656 78.953125 25.972656 C 96.566406 25.972656 109.105469 38.058594 109.105469 54.84375 C 109.105469 69.535156 100.945312 78.722656 90.199219 78.722656 C 85.519531 78.722656 82.140625 76.226562 81.640625 71.03125 L 81.441406 71.03125 C 78.257812 76.027344 73.878906 78.722656 68.503906 78.722656 C 62.136719 78.722656 57.355469 73.832031 57.355469 65.636719 C 57.355469 53.347656 66.414062 42.355469 80.742188 42.355469 C 85.125 42.355469 90.097656 43.453125 92.585938 44.753906 L 89.601562 63.335938 C 88.605469 69.234375 89.304688 71.929688 92.089844 72.03125 C 96.371094 72.230469 101.742188 66.738281 101.742188 55.144531 C 101.742188 42.058594 93.382812 32.066406 77.960938 32.066406 C 62.632812 32.066406 49.398438 43.957031 49.398438 63.140625 C 49.398438 79.921875 59.945312 89.316406 74.773438 89.316406 C 79.851562 89.316406 85.320312 88.21875 89.304688 86.21875 L 91.09375 91.914062 " fill-opacity="1" fill-rule="nonzero"/><g clip-path="url(#8bbb79c767)"><path fill="#fdc00f" d="M 4.339844 57.96875 C 3.910156 57.84375 3.542969 57.691406 3.238281 57.507812 L 2.230469 57.085938 C 2.179688 57.496094 2.140625 57.90625 2.140625 58.328125 L 2.140625 138.476562 C 2.140625 141.503906 3.488281 144.226562 5.601562 146.09375 L 66.433594 84.019531 L 4.339844 57.96875 " fill-opacity="1" fill-rule="nonzero"/></g><g clip-path="url(#71074ee054)"><path fill="#fdc00f" d="M 147.644531 138.476562 L 147.644531 58.328125 C 147.644531 58.023438 147.628906 57.71875 147.601562 57.417969 L 84.980469 84.46875 L 145.074219 145.203125 C 146.667969 143.40625 147.644531 141.054688 147.644531 138.476562 " fill-opacity="1" fill-rule="nonzero"/></g><g clip-path="url(#c3b138156e)"><path fill="#fa9a23" d="M 84.980469 84.46875 L 82.5625 82.03125 C 78.648438 78.070312 72.253906 78.082031 68.355469 82.0625 L 66.433594 84.019531 L 5.601562 146.09375 C 7.386719 147.660156 9.703125 148.621094 12.246094 148.621094 L 137.539062 148.621094 C 140.53125 148.621094 143.226562 147.289062 145.074219 145.203125 L 84.980469 84.46875 " fill-opacity="1" fill-rule="nonzero"/></g><g clip-path="url(#f63e44a1b0)"><path fill="#fdc00f" d="M 84.980469 87.589844 L 82.5625 85.265625 C 78.648438 81.496094 72.253906 81.515625 68.355469 85.296875 L 66.433594 87.160156 L 5.601562 146.214844 C 7.386719 147.707031 9.703125 148.621094 12.246094 148.621094 L 137.539062 148.621094 C 140.53125 148.621094 143.226562 147.351562 145.074219 145.367188 L 84.980469 87.589844 " fill-opacity="1" fill-rule="nonzero"/></g></svg>