<svg xmlns="http://www.w3.org/2000/svg" xmlns:xlink="http://www.w3.org/1999/xlink" width="200" zoomAndPan="magnify" viewBox="0 0 150 149.999998" height="200" preserveAspectRatio="xMidYMid meet" version="1.0"><defs><clipPath id="152cbe1160"><path d="M 25.03125 116 L 124.78125 116 L 124.78125 148.5 L 25.03125 148.5 Z M 25.03125 116 " clip-rule="nonzero"/></clipPath></defs><path fill="#e60081" d="M 41.183594 45.550781 L 74.917969 132.042969 L 108.652344 45.550781 C 113.355469 26.886719 102.070312 7.933594 83.4375 3.21875 C 64.808594 -1.496094 45.890625 9.8125 41.183594 28.480469 C 39.734375 34.234375 39.847656 40.167969 41.183594 45.550781 " fill-opacity="1" fill-rule="nonzero"/><path fill="#f68491" d="M 69.699219 111.082031 L 45.125 48.066406 C 43.945312 43.3125 43.84375 38.070312 45.125 32.988281 C 48.640625 19.03125 61.15625 9.734375 74.894531 9.734375 C 77.386719 9.734375 79.917969 10.039062 82.441406 10.679688 C 83.074219 10.835938 83.691406 11.019531 84.300781 11.214844 C 83.351562 12.21875 82.441406 13.273438 81.578125 14.375 C 72.40625 26.085938 68.214844 39.542969 66.648438 54.199219 C 65.09375 68.722656 67.070312 83.574219 69.320312 97.96875 C 69.328125 100.144531 69.355469 102.308594 69.394531 104.46875 C 69.433594 106.671875 69.539062 108.878906 69.699219 111.082031 " fill-opacity="1" fill-rule="nonzero"/><path fill="#b4285b" d="M 51.777344 39.824219 C 51.777344 53.070312 62.496094 63.808594 75.71875 63.808594 C 88.9375 63.808594 99.65625 53.070312 99.65625 39.824219 C 99.65625 26.578125 88.9375 15.839844 75.71875 15.839844 C 62.496094 15.839844 51.777344 26.578125 51.777344 39.824219 " fill-opacity="1" fill-rule="nonzero"/><path fill="#1b1b1b" d="M 54.570312 37.023438 C 54.570312 48.722656 64.039062 58.210938 75.71875 58.210938 C 87.394531 58.210938 96.863281 48.722656 96.863281 37.023438 C 96.863281 25.324219 87.394531 15.839844 75.71875 15.839844 C 64.039062 15.839844 54.570312 25.324219 54.570312 37.023438 " fill-opacity="1" fill-rule="nonzero"/><g clip-path="url(#152cbe1160)"><path fill="#e60081" d="M 76.824219 116.898438 C 96.28125 117.210938 111.75 122.3125 111.75 128.558594 C 111.75 135.007812 95.265625 140.238281 74.929688 140.238281 C 54.59375 140.238281 38.105469 135.007812 38.105469 128.558594 C 38.105469 122.3125 53.578125 117.210938 73.035156 116.898438 C 46.390625 117.214844 25.097656 124.15625 25.097656 132.6875 C 25.097656 141.414062 47.40625 148.488281 74.929688 148.488281 C 102.453125 148.488281 124.761719 141.414062 124.761719 132.6875 C 124.761719 124.15625 103.46875 117.214844 76.824219 116.898438 " fill-opacity="1" fill-rule="nonzero"/></g><path fill="#e60081" d="M 76.085938 120.011719 C 87.933594 120.207031 97.355469 123.3125 97.355469 127.117188 C 97.355469 131.042969 87.316406 134.230469 74.929688 134.230469 C 62.542969 134.230469 52.5 131.042969 52.5 127.117188 C 52.5 123.3125 61.925781 120.207031 73.773438 120.011719 C 57.546875 120.207031 44.578125 124.4375 44.578125 129.632812 C 44.578125 134.945312 58.167969 139.257812 74.929688 139.257812 C 91.691406 139.257812 105.28125 134.945312 105.28125 129.632812 C 105.28125 124.4375 92.3125 120.207031 76.085938 120.011719 " fill-opacity="1" fill-rule="nonzero"/></svg>